<?xml version="1.0" encoding="utf-8"?>
<!-- Generator: Adobe Illustrator 24.0.2, SVG Export Plug-In . SVG Version: 6.00 Build 0)  -->
<svg version="1.1" id="Capa_1" xmlns="http://www.w3.org/2000/svg" xmlns:xlink="http://www.w3.org/1999/xlink" x="0px" y="0px"
	 viewBox="0 0 283.46 283.46" style="enable-background:new 0 0 283.46 283.46;" xml:space="preserve">
<style type="text/css">
	.st0{fill:#FFFFFF;}
</style>
<path class="st0" d="M141.7,3.99c75.87-0.07,137.27,60.96,137.93,137.1c0.66,75.79-61.67,138.43-137.71,138.39
	C65.39,279.44,4.05,218.17,3.83,141.56C3.61,65.79,65.48,4.05,141.7,3.99z M148.04,230.53c0-2.5,0-4.31,0-6.12
	c0-21.33,0.1-42.66-0.09-63.99c-0.04-4.38,0.83-6.38,5.71-5.93c4.96,0.46,10,0.28,14.98-0.01c1.39-0.08,3.68-1.38,3.88-2.44
	c1.77-9.28,3.17-18.63,4.8-28.71c-10,0-19.4,0-29.27,0c0-6.63,0-12.59,0-18.55c0.01-12.6,5.02-17.65,17.86-17.91
	c3.95-0.08,7.9-0.01,12.16-0.01c0-8.85,0-17.09,0-26.82c-10.72,0-21.2-0.46-31.62,0.12c-12.29,0.68-21.84,6.93-26.62,18.2
	c-2.98,7.01-4.18,14.97-5.05,22.63c-0.82,7.18-0.18,14.54-0.18,22.47c-9.65,0-18.54,0-27.38,0c0,10.72,0,20.75,0,31.33
	c9.25,0,18,0,27.55,0c0,25.57,0,50.61,0,75.76C126.16,230.53,136.76,230.53,148.04,230.53z"/>
</svg>
