<?xml version="1.0" encoding="utf-8"?>
<!-- Generator: Adobe Illustrator 24.0.2, SVG Export Plug-In . SVG Version: 6.00 Build 0)  -->
<svg version="1.1" id="Capa_1" xmlns="http://www.w3.org/2000/svg" xmlns:xlink="http://www.w3.org/1999/xlink" x="0px" y="0px"
	 viewBox="0 0 283.46 283.46" style="enable-background:new 0 0 283.46 283.46;" xml:space="preserve">
<style type="text/css">
	.st0{fill:#FFFFFF;}
</style>
<g>
	<path class="st0" d="M141.72,3.98c76.37,0.25,137.8,61.56,137.89,137.62c0.09,76.32-62.07,138.12-138.69,137.89
		C65.28,279.26,3.41,217,3.85,141.55C4.3,65.07,65.77,3.73,141.72,3.98z M61.45,142.09c0.01,0,0.01,0,0.02,0
		c0,12.17-0.03,24.33,0.01,36.5c0.07,23.99,18.25,43.15,42.34,43.62c25.32,0.5,50.67,0.51,75.99,0.02
		c23.49-0.45,41.96-19.47,42.17-42.85c0.22-25,0.25-50,0-75c-0.22-22.07-17.64-41.3-39.64-42.05c-27.13-0.92-54.34-0.94-81.47,0.07
		c-22.3,0.83-39.36,20.34-39.41,42.68C61.42,117.43,61.45,129.76,61.45,142.09z"/>
	<path class="st0" d="M141.32,76.22c12.16,0,24.31-0.07,36.47,0.02c17.05,0.13,29.83,12.42,30.03,29.53
		c0.29,24.14,0.27,48.29,0.02,72.43c-0.18,17.33-12.85,29.73-30.3,29.86c-24.14,0.18-48.29,0.18-72.44,0.03
		c-15.8-0.1-28.92-11.93-29.3-27.64C75.2,155,75.2,129.5,75.76,104.04c0.35-16.01,13.49-27.7,29.59-27.8
		C117.34,76.16,129.33,76.22,141.32,76.22z M141.83,185.92c24.4-0.06,43.93-19.79,43.92-44.39c-0.01-23.33-20.49-43.39-44.15-43.26
		c-24.08,0.13-43.62,20-43.53,44.26C98.15,166.51,117.78,185.97,141.83,185.92z M194.14,98.94c-0.13-5.1-4.76-9.29-9.97-9.04
		c-4.99,0.24-8.9,4.56-8.74,9.66c0.16,5.14,4.23,9.05,9.36,9C190.07,108.5,194.27,104.17,194.14,98.94z"/>
	<path class="st0" d="M113.03,142.32c-0.03-15.63,12.9-28.68,28.47-28.75c15.66-0.07,28.79,12.89,28.78,28.41
		c-0.01,16.03-13,29.18-28.69,29.06C126.03,170.93,113.06,157.89,113.03,142.32z"/>
</g>
</svg>
