<?xml version="1.0" encoding="utf-8"?>
<!-- Generator: Adobe Illustrator 24.0.2, SVG Export Plug-In . SVG Version: 6.00 Build 0)  -->
<svg version="1.1" id="Capa_1" xmlns="http://www.w3.org/2000/svg" xmlns:xlink="http://www.w3.org/1999/xlink" x="0px" y="0px"
	 viewBox="0 0 283.46 283.46" style="enable-background:new 0 0 283.46 283.46;" xml:space="preserve">
<style type="text/css">
	.st0{fill:#FFFFFF;}
</style>
<g>
	<path class="st0" d="M279.6,141.51c0.47,74.73-61.14,136.99-135.65,137.97C68.19,280.49,5.69,220.4,3.9,145.07
		C2.05,66.9,65,4.34,140.15,3.97C217.36,3.58,279.11,64.48,279.6,141.51z M141.68,198.31c0.01-0.27,0.02-0.54,0.03-0.81
		c5,0,10.01,0.27,14.99-0.05c14.78-0.96,29.58-1.77,44.3-3.38c10.14-1.11,16.17-7.66,17.68-17.66c3.51-23.21,3.51-46.49,0.02-69.7
		c-1.5-9.96-7.47-16.22-17.56-17.89c-5.9-0.98-11.87-1.68-17.84-2.09c-32.3-2.21-64.61-2.33-96.81,1.38
		C71.55,89.82,65.03,96.89,64,111.98c-0.76,11.13-1.39,22.3-1.22,33.44c0.16,10.63,0.97,21.3,2.34,31.84
		c1.2,9.24,7.3,14.68,16.33,16.69c2.76,0.61,5.57,1.16,8.38,1.34C107.1,196.36,124.39,197.32,141.68,198.31z"/>
	<path class="st0" d="M167.17,141.45c-14.06,8.17-27.09,15.75-40.75,23.69c0-15.88,0-31.09,0-47.06
		C140,125.87,153.16,133.42,167.17,141.45z"/>
</g>
</svg>
